<svg id="untitled-2" xmlns="http://www.w3.org/2000/svg" xmlns:xlink="http://www.w3.org/1999/xlink" viewBox="0 0 800 800" shape-rendering="geometricPrecision" text-rendering="geometricPrecision">
  <defs>
    <filter id="glow">
      <feDropShadow dx="0" dy="0" stdDeviation="3" flood-color="white" />
    </filter>
  </defs>
  <g id="g1" style="filter:url(#glow)">
    <polygon id="outerborder" points="190.527968,-80 450.337968,70 450.337968,370 190.527968,520 -69.282032,370 -69.282032,70 190.527968,-80" transform="matrix(1 0 0 1 209.47203229999997 179.99999999999994)" fill="none" stroke="rgb(255,255,255)" stroke-width="4" stroke-dasharray="0"/>
    <polygon id="rotatedouter" points="181.867968,-80 433.017968,65 433.017968,355 181.867968,500 -69.282032,355 -69.282032,65 181.867968,-80" transform="matrix(0.86602540378444 0.50000000000000 -0.50000000000000 0.86602540378444 344.99793984037893 127.20068136242327)" fill="none" stroke="rgb(255,255,255)" stroke-width="2" stroke-dasharray="0"/>
    <polygon id="rotatedinner" points="125.577968,-80 320.437968,32.500000 320.437968,257.500000 125.577968,370 -69.282032,257.500000 -69.282032,32.500000 125.577968,-80" transform="matrix(0.86602540378444 0.50000000000000 -0.50000000000000 0.86602540378444 361.24650982037866 211.63733260742339)" fill="none" stroke="rgb(255,255,255)" stroke-width="2" stroke-dasharray="0"/>
    <path id="deco1" d="M255.937664,148.852633L285.000220,148.852633L308.871458,188.852633L485.003784,188.852633L510.003930,148.852633L538.417134,148.852633Q538.417134,148.852633,538.417134,148.852633" transform="matrix(1 0 0 1 0 9.14315600000000)" fill="none" stroke="rgb(255,255,255)" stroke-width="1.600000" stroke-dasharray="0"/>
    <path id="deco2" d="M538.417134,148.852633L552.770943,172.595875L530.065546,213.268974L618.131709,365.804043L665.272798,367.454804L678.753930,390.804810" transform="matrix(1 0 0 1 0 9.14315600000000)" fill="none" stroke="rgb(255,255,255)" stroke-width="1.600000" stroke-dasharray="0"/>
    <path id="deco3" d="M257.583885,148.852633L285.000220,148.852633L308.871458,188.852633L485.003784,188.852633L510.003930,148.852633L536.966194,148.852633" transform="matrix(-0.50000000000000 0.86602540378444 0.86602540378444 0.50000000000000 255.81944529521178 -139.50471556557301)" fill="none" stroke="rgb(255,255,255)" stroke-width="1.600000" stroke-dasharray="0"/>
    <path id="deco4" d="M255.937664,148.852633Q264.656431,148.852633,285.000220,148.852633L308.871458,188.852633L485.003784,188.852633L510.003930,148.852633L539.062776,148.852633" transform="matrix(1 0 0 -1 0.00000000499966 793.22812424999984)" fill="none" stroke="rgb(255,255,255)" stroke-width="1.600000" stroke-dasharray="0"/>
    <path id="deco5" d="M255.440170,150.090307L285.000220,148.852633L308.871458,188.852633L485.003784,188.852633L510.003930,148.852633L536.966194,148.852633" transform="matrix(0.50000000000000 0.86602540378444 0.86602540378444 -0.50000000000000 -141.45559420478816 253.77544282442631)" fill="none" stroke="rgb(255,255,255)" stroke-width="1.600000" stroke-dasharray="0"/>
    <path id="deco6" d="M255.440170,150.090307L285.000220,148.852633L308.871458,188.852633L485.003784,188.852633L510.003930,148.852633L536.966194,148.852633" transform="matrix(-0.50000000000000 0.86602540378444 -0.86602540378444 -0.50000000000000 936.45603418978794 253.77544282442693)" fill="none" stroke="rgb(255,255,255)" stroke-width="1.600000" stroke-dasharray="0"/>
    <g id="g2" transform="matrix(-1 0 -0 -1 794.35476684000014 801.13357543999996)">
      <ellipse id="yingyangborder" rx="160" ry="160" transform="matrix(1 0 0 1 397.17739915499760 400.56680298999925)" fill="none" stroke="rgb(255,255,255)" stroke-width="4" stroke-dasharray="0"/>
      <ellipse id="upperdot" rx="30" ry="30" transform="matrix(1 0 0 1 397.17739915000112 318.97187737499996)" fill="rgb(255,255,255)" stroke="none" stroke-width="0" stroke-dasharray="0"/>
      <path id="yin" d="M237.177400,400.566790C237.177410,312.212250,308.793970,240.584670,397.144330,240.566800C351.758960,240.584190,314.972400,276.394740,314.972400,320.566790C314.972400,362.875510,348.720840,397.513290,391.448800,400.375570C394.259590,400.092850,397.112410,399.947960,400,399.947960C445.400570,399.947960,482.205000,435.765180,482.205000,479.947960C482.205000,523.166250,446.989870,558.380230,402.960630,559.897040C402.046840,560.124320,401.103420,560.338840,400.129680,560.540100C399.147720,560.557870,398.163600,560.566790,397.177400,560.566790C308.811840,560.566790,237.177410,488.932360,237.177400,400.566800ZM400,512.471150C416.568540,512.471150,430,499.039690,430,482.471150C430,465.902610,416.568540,452.471150,400,452.471150C383.431460,452.471150,370,465.902610,370,482.471150C370,499.039690,383.431460,512.471150,400,512.471150" fill="rgb(255,255,255)" stroke="none" stroke-width="4" stroke-dasharray="0"/>
    </g>
  </g>
</svg>
